<svg xmlns="http://www.w3.org/2000/svg" width="441" height="127" viewBox="0 0 441 127">
  <g id="Inbox_drawer" data-name="Inbox drawer" transform="translate(-7892 -4199)">
    <rect id="box_3" data-name="box 3" width="364" height="89" rx="15" transform="translate(7931 4199)" fill="#f3f2fe"/>
    <rect id="box_2" data-name="box 2" width="408" height="89" rx="15" transform="translate(7909 4218)" fill="#fcfbfb"/>
    <g id="box_1" data-name="box 1">
      <rect id="box_1-2" data-name="box 1" width="441" height="89" rx="15" transform="translate(7892 4237)" fill="#fff"/>
      <g id="Email_icon" data-name="Email icon" transform="translate(-1378 -121)">
        <rect id="Email" width="61" height="61" rx="9" transform="translate(9291 4372)" fill="#ece9fe"/>
        <path id="_388-mail" data-name="388-mail" d="M7.8,7.851h35a4.383,4.383,0,0,1,1.789.385L25.3,30.737,6.013,8.236A4.3,4.3,0,0,1,7.8,7.851ZM3.427,38.476V12.226c0-.092,0-.184.009-.276L16.264,26.917,3.576,39.6A4.229,4.229,0,0,1,3.427,38.476ZM42.8,42.851H7.8A4.415,4.415,0,0,1,6.674,42.7L19.125,30.251l6.182,7.21,6.182-7.21L43.94,42.7a4.23,4.23,0,0,1-1.129.149Zm4.375-4.375a4.414,4.414,0,0,1-.149,1.129L34.341,26.917,47.169,11.95c0,.092.009.184.009.276Z" transform="translate(9296.572 4377.149)" fill="#2e1165"/>
      </g>
      <g id="Inbox_text_content" data-name="Inbox text content" transform="translate(-1378 -121)">
        <text id="Safe_Haven_Quote" data-name="Safe Haven Quote" transform="translate(9367 4393)" fill="#262625" font-size="20" font-family="Poppins-Bold, Poppins" font-weight="700"><tspan x="0" y="0">Safe Haven Quote</tspan></text>
        <text id="Mon_14_oct" data-name="Mon, 14 oct" transform="translate(9367 4426)" fill="#262625" font-size="20" font-family="Poppins-Regular, Poppins"><tspan x="0" y="0">Mon, 14 oct</tspan></text>
        <text id="_1_d" data-name="1 d" transform="translate(9668 4427)" fill="#262625" font-size="20" font-family="Poppins-Regular, Poppins"><tspan x="0" y="0">1 d</tspan></text>
      </g>
    </g>
  </g>
</svg>
